<?xml version="1.0" standalone="no"?>
<!DOCTYPE svg PUBLIC "-//W3C//DTD SVG 20010904//EN" "http://www.w3.org/TR/2001/REC-SVG-20010904/DTD/svg10.dtd">
<svg version="1.0" xmlns="http://www.w3.org/2000/svg" width="700" height="700" viewBox="0 0 700 700" preserveAspectRatio="xMidYMid meet">
  <metadata>Teapresso Logo for Safari Pinned Tab</metadata>
  <g transform="translate(0,700) scale(0.1,-0.1)" fill="#000000" stroke="none">
    <path d="M3200 6500 c-800 -100 -1500 -600 -1900 -1300 -200 -350 -300 -750 -300 -1200 0 -450 100 -850 300 -1200 400 -700 1100 -1200 1900 -1300 200 -25 600 -25 800 0 800 100 1500 600 1900 1300 200 350 300 750 300 1200 0 450 -100 850 -300 1200 -400 700 -1100 1200 -1900 1300 -200 25 -600 25 -800 0z"/>
  </g>
</svg>
