<svg width="20" height="24" viewBox="0 0 20 24" fill="none" xmlns="http://www.w3.org/2000/svg">
<path d="M17.0733 5.56158C16.9215 5.48308 16.7736 5.39704 16.6304 5.30376C16.2138 5.02835 15.8318 4.70383 15.4927 4.3372C14.6443 3.36642 14.3274 2.38158 14.2107 1.69205H14.2154C14.1179 1.1197 14.1582 0.74939 14.1643 0.74939H10.2999V15.6922C10.2999 15.8928 10.2999 16.0911 10.2915 16.287C10.2915 16.3114 10.2891 16.3339 10.2877 16.3602C10.2877 16.3709 10.2877 16.3822 10.2854 16.3934C10.2854 16.3963 10.2854 16.3991 10.2854 16.4019C10.2446 16.938 10.0728 17.456 9.78489 17.9101C9.49701 18.3642 9.10194 18.7407 8.63443 19.0063C8.14718 19.2835 7.5961 19.4289 7.03552 19.4281C5.23505 19.4281 3.77583 17.96 3.77583 16.1469C3.77583 14.3338 5.23505 12.8656 7.03552 12.8656C7.37634 12.8653 7.71506 12.919 8.03912 13.0245L8.0438 9.08986C7.06007 8.96278 6.06067 9.04097 5.10866 9.31947C4.15666 9.59797 3.2727 10.0708 2.51255 10.708C1.84649 11.2867 1.28653 11.9772 0.857865 12.7485C0.69474 13.0297 0.0792712 14.1599 0.00473994 15.9941C-0.0421351 17.0352 0.270521 18.1138 0.419584 18.5595V18.5689C0.513334 18.8314 0.876615 19.7272 1.46865 20.4824C1.94604 21.0881 2.51006 21.6202 3.14255 22.0616V22.0522L3.15193 22.0616C5.02271 23.3328 7.09693 23.2494 7.09693 23.2494C7.45599 23.2349 8.6588 23.2494 10.0247 22.602C11.5397 21.8844 12.4022 20.8152 12.4022 20.8152C12.9532 20.1763 13.3914 19.4482 13.6979 18.6622C14.0476 17.743 14.1643 16.6405 14.1643 16.1999V8.27236C14.2111 8.30048 14.8355 8.71345 14.8355 8.71345C14.8355 8.71345 15.7351 9.29001 17.1385 9.66548C18.1454 9.93267 19.5019 9.98892 19.5019 9.98892V6.15267C19.0266 6.20423 18.0615 6.05423 17.0733 5.56158Z" fill="white"/>
</svg>
